<?xml version="1.0" encoding="UTF-8" standalone="no"?>
<!-- Creator: fig2dev Version 3.2.8b -->
<!-- CreationDate: 2022-08-07 20:33:01 -->
<!-- Magnification: 1.05 -->
<svg	xmlns="http://www.w3.org/2000/svg"
	xmlns:xlink="http://www.w3.org/1999/xlink"
	width="612pt" height="566pt"
	viewBox="1560 1080 9702 8977">
<g fill="none">
<!-- Line -->
<rect x="4950" y="5508" width="1257" height="193"
	stroke="#4a4a4a" stroke-width="8px" stroke-dasharray="30 30"/>
<!-- Line -->
<rect x="4950" y="9648" width="1257" height="193"
	stroke="#4a4a4a" stroke-width="8px" stroke-dasharray="30 30"/>
<!-- Line -->
<rect x="6795" y="7578" width="1257" height="193"
	stroke="#4a4a4a" stroke-width="8px" stroke-dasharray="30 30"/>
<!-- Line -->
<rect x="6795" y="5508" width="1257" height="193"
	stroke="#4a4a4a" stroke-width="8px" stroke-dasharray="30 30"/>
<!-- Line -->
<rect x="3015" y="5508" width="1257" height="193"
	stroke="#4a4a4a" stroke-width="8px" stroke-dasharray="30 30"/>
<!-- Line -->
<rect x="4950" y="7578" width="1257" height="193"
	stroke="#4a4a4a" stroke-width="8px" stroke-dasharray="30 30"/>
<!-- Line -->
<rect x="6795" y="9648" width="1257" height="193"
	stroke="#4a4a4a" stroke-width="8px" stroke-dasharray="30 30"/>
<!-- Line -->
<rect x="4950" y="3960" width="1257" height="193"
	stroke="#000000" stroke-width="8px"/>
<!-- Line -->
<rect x="4950" y="4153" width="1257" height="194"
	stroke="#000000" stroke-width="8px"/>
<!-- Line -->
<rect x="4950" y="4347" width="1257" height="193"
	stroke="#000000" stroke-width="8px"/>
<!-- Line -->
<rect x="4950" y="4540" width="1257" height="194"
	stroke="#000000" stroke-width="8px"/>
<!-- Line -->
<rect x="4950" y="4734" width="1257" height="193"
	stroke="#000000" stroke-width="8px"/>
<!-- Line -->
<rect x="4950" y="4927" width="1257" height="194"
	stroke="#000000" stroke-width="8px"/>
<!-- Line -->
<rect x="4950" y="5121" width="1257" height="193"
	stroke="#000000" stroke-width="8px"/>
<!-- Line -->
<rect x="4950" y="5314" width="1257" height="194"
	stroke="#000000" stroke-width="8px"/>
<!-- Line -->
<rect x="4950" y="5701" width="1257" height="194"
	stroke="#000000" stroke-width="8px"/>
<!-- Line -->
<rect x="4950" y="8100" width="1257" height="193"
	stroke="#000000" stroke-width="8px"/>
<!-- Line -->
<rect x="4950" y="8293" width="1257" height="194"
	stroke="#000000" stroke-width="8px"/>
<!-- Line -->
<rect x="4950" y="8487" width="1257" height="193"
	stroke="#000000" stroke-width="8px"/>
<!-- Line -->
<rect x="4950" y="8680" width="1257" height="194"
	stroke="#000000" stroke-width="8px"/>
<!-- Line -->
<rect x="4950" y="8874" width="1257" height="193"
	stroke="#000000" stroke-width="8px"/>
<!-- Line -->
<rect x="4950" y="9067" width="1257" height="194"
	stroke="#000000" stroke-width="8px"/>
<!-- Line -->
<rect x="4950" y="9261" width="1257" height="193"
	stroke="#000000" stroke-width="8px"/>
<!-- Line -->
<rect x="4950" y="9454" width="1257" height="194"
	stroke="#000000" stroke-width="8px"/>
<!-- Line -->
<rect x="4950" y="9841" width="1257" height="194"
	stroke="#000000" stroke-width="8px"/>
<!-- Line -->
<rect x="6795" y="6030" width="1257" height="193"
	stroke="#000000" stroke-width="8px"/>
<!-- Line -->
<rect x="6795" y="6223" width="1257" height="194"
	stroke="#000000" stroke-width="8px"/>
<!-- Line -->
<rect x="6795" y="6417" width="1257" height="193"
	stroke="#000000" stroke-width="8px"/>
<!-- Line -->
<rect x="6795" y="6610" width="1257" height="194"
	stroke="#000000" stroke-width="8px"/>
<!-- Line -->
<rect x="6795" y="6804" width="1257" height="193"
	stroke="#000000" stroke-width="8px"/>
<!-- Line -->
<rect x="6795" y="6997" width="1257" height="194"
	stroke="#000000" stroke-width="8px"/>
<!-- Line -->
<rect x="6795" y="7191" width="1257" height="193"
	stroke="#000000" stroke-width="8px"/>
<!-- Line -->
<rect x="6795" y="7384" width="1257" height="194"
	stroke="#000000" stroke-width="8px"/>
<!-- Line -->
<rect x="6795" y="7771" width="1257" height="194"
	stroke="#000000" stroke-width="8px"/>
<!-- Line -->
<rect x="6795" y="3960" width="1257" height="193"
	stroke="#000000" stroke-width="8px"/>
<!-- Line -->
<rect x="6795" y="4153" width="1257" height="194"
	stroke="#000000" stroke-width="8px"/>
<!-- Line -->
<rect x="6795" y="4347" width="1257" height="193"
	stroke="#000000" stroke-width="8px"/>
<!-- Line -->
<rect x="6795" y="4540" width="1257" height="194"
	stroke="#000000" stroke-width="8px"/>
<!-- Line -->
<rect x="6795" y="4734" width="1257" height="193"
	stroke="#000000" stroke-width="8px"/>
<!-- Line -->
<rect x="6795" y="4927" width="1257" height="194"
	stroke="#000000" stroke-width="8px"/>
<!-- Line -->
<rect x="6795" y="5121" width="1257" height="193"
	stroke="#000000" stroke-width="8px"/>
<!-- Line -->
<rect x="6795" y="5314" width="1257" height="194"
	stroke="#000000" stroke-width="8px"/>
<!-- Line -->
<rect x="6795" y="5701" width="1257" height="194"
	stroke="#000000" stroke-width="8px"/>
<!-- Line -->
<rect x="2745" y="1305" width="8505" height="450"
	stroke="#000000" stroke-width="8px"/>
<!-- Line -->
<rect x="2745" y="2115" width="8505" height="450"
	stroke="#000000" stroke-width="8px"/>
<!-- Line -->
<rect x="4635" y="2925" width="1890" height="450"
	stroke="#000000" stroke-width="8px"/>
<!-- Line -->
<rect x="6525" y="2925" width="1890" height="450"
	stroke="#000000" stroke-width="8px"/>
<!-- Line -->
<rect x="8415" y="2925" width="2835" height="450"
	stroke="#000000" stroke-width="8px"/>
<!-- Line -->
<rect x="8415" y="2115" width="2835" height="450"
	stroke="#000000" stroke-width="8px"/>
<!-- Line -->
<rect x="2745" y="2925" width="1890" height="450"
	stroke="#000000" stroke-width="8px"/>
<!-- Line -->
<defs>
<clipPath id="cp0">
	<path clip-rule="evenodd" d="M 1560,1080 H 11262 V 10057 H 1560 z
		M 8265,5891 8205,5891 8228,5902 8242,5902z
		M 8205,3964 8265,3964 8242,3953 8228,3953z"/>
</clipPath>
</defs>
<polyline points=" 8235,3960 8235,5895" clip-path="url(#cp0)"
	stroke="#4a4a4a" stroke-width="8px"/>
<!-- Forward arrow to point 8235,5895 -->
<polyline points=" 8265,5891 8205,5891"
	stroke="#4a4a4a" stroke-width="8px" stroke-miterlimit="8"/>
<!-- Backward arrow to point 8235,3960 -->
<polyline points=" 8205,3964 8265,3964"
	stroke="#4a4a4a" stroke-width="8px" stroke-miterlimit="8"/>
<!-- Line -->
<defs>
<clipPath id="cp1">
	<path clip-rule="evenodd" d="M 1560,1080 H 11262 V 10057 H 1560 z
		M 4748,8070 4748,8130 4867,8107 4867,8093z
		M 8205,3964 8265,3964 8242,3953 8228,3953z"/>
</clipPath>
</defs>
<polyline points=" 4005,4455 4500,4455 4500,8100 4860,8100" clip-path="url(#cp1)"
	stroke="#4a4a4a" stroke-width="8px"/>
<!-- Forward arrow to point 4860,8100 -->
<polygon points=" 4748,8130 4808,8100 4748,8070 4748,8130"
	stroke="#4a4a4a" stroke-width="45px" stroke-miterlimit="8" fill="#4a4a4a"/>
<!-- Line -->
<defs>
<clipPath id="cp2">
	<path clip-rule="evenodd" d="M 1560,1080 H 11262 V 10057 H 1560 z
		M 4793,3930 4793,3990 4912,3967 4912,3953z
		M 8205,3964 8265,3964 8242,3953 8228,3953z"/>
</clipPath>
</defs>
<polyline points=" 4005,4050 4500,4050 4500,3960 4905,3960" clip-path="url(#cp2)"
	stroke="#4a4a4a" stroke-width="8px"/>
<!-- Forward arrow to point 4905,3960 -->
<polygon points=" 4793,3990 4853,3960 4793,3930 4793,3990"
	stroke="#4a4a4a" stroke-width="45px" stroke-miterlimit="8" fill="#4a4a4a"/>
<!-- Line -->
<defs>
<clipPath id="cp3">
	<path clip-rule="evenodd" d="M 1560,1080 H 11262 V 10057 H 1560 z
		M 4793,6000 4793,6060 4912,6037 4912,6023z
		M 8205,3964 8265,3964 8242,3953 8228,3953z"/>
</clipPath>
</defs>
<polyline points=" 4005,4230 4635,4230 4635,6030 4905,6030" clip-path="url(#cp3)"
	stroke="#8f0000" stroke-width="8px"/>
<!-- Forward arrow to point 4905,6030 -->
<polygon points=" 4793,6060 4853,6030 4793,6000 4793,6060"
	stroke="#8f0000" stroke-width="45px" stroke-miterlimit="8" fill="#8f0000"/>
<!-- Line -->
<rect x="3015" y="4540" width="1257" height="194"
	stroke="#000000" stroke-width="8px"/>
<!-- Line -->
<rect x="3015" y="4734" width="1257" height="193"
	stroke="#000000" stroke-width="8px"/>
<!-- Line -->
<rect x="3015" y="4927" width="1257" height="194"
	stroke="#000000" stroke-width="8px"/>
<!-- Line -->
<rect x="3015" y="5121" width="1257" height="193"
	stroke="#000000" stroke-width="8px"/>
<!-- Line -->
<rect x="3015" y="5314" width="1257" height="194"
	stroke="#000000" stroke-width="8px"/>
<!-- Line -->
<rect x="3015" y="5701" width="1257" height="194"
	stroke="#000000" stroke-width="8px"/>
<!-- Line -->
<rect x="3015" y="3960" width="1257" height="193"
	stroke="#000000" stroke-width="8px"/>
<!-- Line -->
<rect x="3015" y="4347" width="1257" height="193"
	stroke="#000000" stroke-width="8px"/>
<!-- Line -->
<rect x="3015" y="4153" width="1257" height="194"
	stroke="#d10000" stroke-width="15px"/>
<!-- Line -->
<rect x="3015" y="3960" width="1260" height="1935"
	stroke="#8f0000" stroke-width="15px"/>
<!-- Line -->
<rect x="4950" y="6610" width="1257" height="194"
	stroke="#000000" stroke-width="8px"/>
<!-- Line -->
<rect x="4950" y="6804" width="1257" height="193"
	stroke="#000000" stroke-width="8px"/>
<!-- Line -->
<rect x="4950" y="6997" width="1257" height="194"
	stroke="#000000" stroke-width="8px"/>
<!-- Line -->
<rect x="4950" y="7191" width="1257" height="193"
	stroke="#000000" stroke-width="8px"/>
<!-- Line -->
<rect x="4950" y="7384" width="1257" height="194"
	stroke="#000000" stroke-width="8px"/>
<!-- Line -->
<rect x="4950" y="7771" width="1257" height="194"
	stroke="#000000" stroke-width="8px"/>
<!-- Line -->
<rect x="4950" y="6030" width="1260" height="1935"
	stroke="#008f00" stroke-width="15px"/>
<!-- Line -->
<defs>
<clipPath id="cp4">
	<path clip-rule="evenodd" d="M 1560,1080 H 11262 V 10057 H 1560 z
		M 6638,3930 6638,3990 6757,3967 6757,3953z
		M 8205,3964 8265,3964 8242,3953 8228,3953z"/>
</clipPath>
</defs>
<polyline points=" 6030,6120 6390,6120 6390,3960 6750,3960" clip-path="url(#cp4)"
	stroke="#4a4a4a" stroke-width="8px"/>
<!-- Forward arrow to point 6750,3960 -->
<polygon points=" 6638,3990 6698,3960 6638,3930 6638,3990"
	stroke="#4a4a4a" stroke-width="45px" stroke-miterlimit="8" fill="#4a4a4a"/>
<!-- Line -->
<defs>
<clipPath id="cp5">
	<path clip-rule="evenodd" d="M 1560,1080 H 11262 V 10057 H 1560 z
		M 6683,8070 6683,8130 6802,8107 6802,8093z
		M 8205,3964 8265,3964 8242,3953 8228,3953z"/>
</clipPath>
</defs>
<polyline points=" 6030,6300 6390,6300 6390,8100 6795,8100" clip-path="url(#cp5)"
	stroke="#008f00" stroke-width="8px"/>
<!-- Forward arrow to point 6795,8100 -->
<polygon points=" 6683,8130 6743,8100 6683,8070 6683,8130"
	stroke="#008f00" stroke-width="45px" stroke-miterlimit="8" fill="#008f00"/>
<!-- Line -->
<rect x="6795" y="8100" width="1257" height="193"
	stroke="#000000" stroke-width="8px"/>
<!-- Line -->
<rect x="6795" y="9067" width="1257" height="194"
	stroke="#000000" stroke-width="8px"/>
<!-- Line -->
<rect x="6795" y="9261" width="1257" height="193"
	stroke="#000000" stroke-width="8px"/>
<!-- Line -->
<rect x="6795" y="9454" width="1257" height="194"
	stroke="#000000" stroke-width="8px"/>
<!-- Line -->
<rect x="6795" y="9841" width="1257" height="194"
	stroke="#000000" stroke-width="8px"/>
<!-- Line -->
<rect x="9090" y="3960" width="1260" height="1935"
	stroke="#000000" stroke-width="8px"/>
<!-- Line -->
<defs>
<clipPath id="cp6">
	<path clip-rule="evenodd" d="M 1560,1080 H 11262 V 10057 H 1560 z
		M 8888,6000 8888,6060 9007,6037 9007,6023z
		M 8205,3964 8265,3964 8242,3953 8228,3953z"/>
</clipPath>
</defs>
<polyline points=" 7875,8595 8595,8595 8595,6030 9000,6030" clip-path="url(#cp6)"
	stroke="#00008f" stroke-width="8px"/>
<!-- Forward arrow to point 9000,6030 -->
<polygon points=" 8888,6060 8948,6030 8888,6000 8888,6060"
	stroke="#00008f" stroke-width="45px" stroke-miterlimit="8" fill="#00008f"/>
<!-- Line -->
<rect x="9090" y="7515" width="1260" height="135" fill="#000000"
	stroke="#000000" stroke-width="8px"/>
<!-- Line -->
<rect x="9090" y="8100" width="1260" height="1935"
	stroke="#000000" stroke-width="8px"/>
<!-- Line -->
<rect x="4950" y="6417" width="1257" height="193"
	stroke="#000000" stroke-width="8px"/>
<!-- Line -->
<rect x="4950" y="6030" width="1257" height="193"
	stroke="#000000" stroke-width="8px"/>
<!-- Line -->
<rect x="4950" y="6223" width="1257" height="194"
	stroke="#00d100" stroke-width="15px"/>
<!-- Line -->
<rect x="6795" y="8293" width="1257" height="194"
	stroke="#000000" stroke-width="8px"/>
<!-- Line -->
<rect x="6795" y="8487" width="1257" height="193"
	stroke="#0000d1" stroke-width="15px"/>
<!-- Line -->
<rect x="6795" y="8874" width="1257" height="193"
	stroke="#000000" stroke-width="8px"/>
<!-- Line -->
<rect x="6795" y="8100" width="1260" height="1935"
	stroke="#00008f" stroke-width="15px"/>
<!-- Line -->
<rect x="6795" y="8680" width="1257" height="194"
	stroke="#000000" stroke-width="8px"/>
<!-- Text -->
<text xml:space="preserve" x="6345" y="1620" fill="#000000" font-family="Helvetica" font-style="normal" font-weight="bold" font-size="192" text-anchor="start">0x123400</text>
<!-- Text -->
<text xml:space="preserve" x="9225" y="2430" fill="#000000" font-family="Helvetica" font-style="normal" font-weight="bold" font-size="192" text-anchor="start">0x400</text>
<!-- Text -->
<text xml:space="preserve" x="4860" y="2430" fill="#000000" font-family="Helvetica" font-style="normal" font-weight="bold" font-size="192" text-anchor="start">0x123</text>
<!-- Text -->
<text xml:space="preserve" x="3420" y="3240" fill="#8f0000" font-family="Helvetica" font-style="normal" font-weight="bold" font-size="192" text-anchor="start">0x1</text>
<!-- Text -->
<text xml:space="preserve" x="5355" y="3240" fill="#008f00" font-family="Helvetica" font-style="normal" font-weight="bold" font-size="192" text-anchor="start">0x2</text>
<!-- Text -->
<text xml:space="preserve" x="7245" y="3240" fill="#00008f" font-family="Helvetica" font-style="normal" font-weight="bold" font-size="192" text-anchor="start">0x3</text>
<!-- Text -->
<text xml:space="preserve" x="9450" y="3240" fill="#000000" font-family="Helvetica" font-style="normal" font-weight="bold" font-size="192" text-anchor="start">0x400</text>
<!-- Text -->
<text xml:space="preserve" x="2745" y="1215" fill="#000000" font-family="Helvetica" font-style="normal" font-weight="normal" font-size="120" text-anchor="start">Virtual Address</text>
<!-- Text -->
<text xml:space="preserve" x="2745" y="2070" fill="#000000" font-family="Helvetica" font-style="normal" font-weight="normal" font-size="120" text-anchor="start">Virtual Page Number</text>
<!-- Text -->
<text xml:space="preserve" x="8415" y="2025" fill="#000000" font-family="Helvetica" font-style="normal" font-weight="normal" font-size="120" text-anchor="start">Offset</text>
<!-- Text -->
<text xml:space="preserve" x="2745" y="2835" fill="#000000" font-family="Helvetica" font-style="normal" font-weight="normal" font-size="120" text-anchor="start">Page Global Directory</text>
<!-- Text -->
<text xml:space="preserve" x="4680" y="2835" fill="#000000" font-family="Helvetica" font-style="normal" font-weight="normal" font-size="120" text-anchor="start">Page Middle Directory</text>
<!-- Text -->
<text xml:space="preserve" x="6615" y="2835" fill="#000000" font-family="Helvetica" font-style="normal" font-weight="normal" font-size="120" text-anchor="start">Page Translation Entries</text>
<!-- Text -->
<g transform="translate(8325,4590) rotate(-270)" >
<text xml:space="preserve" x="0" y="0" fill="#000000" font-family="Helvetica" font-style="normal" font-weight="normal" font-size="120" text-anchor="start">Page Size</text>
</g><!-- Text -->
<text xml:space="preserve" x="1575" y="4185" fill="#000000" font-family="Helvetica" font-style="normal" font-weight="normal" font-size="120" text-anchor="start">Page Table Base</text>
<!-- Text -->
<g transform="translate(9540,4455) rotate(-270)" >
<text xml:space="preserve" x="0" y="0" fill="#4a4a4a" font-family="Helvetica" font-style="normal" font-weight="bold" font-size="144" text-anchor="start">Frame</text>
</g><!-- Text -->
<g transform="translate(9765,4455) rotate(-270)" >
<text xml:space="preserve" x="0" y="0" fill="#4a4a4a" font-family="Helvetica" font-style="normal" font-weight="bold" font-size="144" text-anchor="start">Free</text>
</g><!-- Text -->
<g transform="translate(9765,6570) rotate(-270)" >
<text xml:space="preserve" x="0" y="0" fill="#4a4a4a" font-family="Helvetica" font-style="normal" font-weight="bold" font-size="144" text-anchor="start">Physical</text>
</g><!-- Text -->
<g transform="translate(9540,6570) rotate(-270)" >
<text xml:space="preserve" x="0" y="0" fill="#4a4a4a" font-family="Helvetica" font-style="normal" font-weight="bold" font-size="144" text-anchor="start">Frame</text>
</g><!-- Text -->
<g transform="translate(9765,8640) rotate(-270)" >
<text xml:space="preserve" x="0" y="0" fill="#4a4a4a" font-family="Helvetica" font-style="normal" font-weight="bold" font-size="144" text-anchor="start">Free</text>
</g><!-- Text -->
<g transform="translate(9540,8640) rotate(-270)" >
<text xml:space="preserve" x="0" y="0" fill="#4a4a4a" font-family="Helvetica" font-style="normal" font-weight="bold" font-size="144" text-anchor="start">Frame</text>
</g><!-- Line -->
<defs>
<clipPath id="cp7">
	<path clip-rule="evenodd" d="M 1560,1080 H 11262 V 10057 H 1560 z
		M 6555,2813 6495,2813 6515,2936 6536,2936z
		M 8205,3964 8265,3964 8242,3953 8228,3953z"/>
</clipPath>
</defs>
<polyline points=" 6525,2565 6525,2925" clip-path="url(#cp7)"
	stroke="#000000" stroke-width="15px"/>
<!-- Forward arrow to point 6525,2925 -->
<polygon points=" 6495,2813 6525,2873 6555,2813 6495,2813"
	stroke="#000000" stroke-width="45px" stroke-miterlimit="8" fill="#000000"/>
<!-- Line -->
<defs>
<clipPath id="cp8">
	<path clip-rule="evenodd" d="M 1560,1080 H 11262 V 10057 H 1560 z
		M 6555,2003 6495,2003 6515,2126 6536,2126z
		M 8205,3964 8265,3964 8242,3953 8228,3953z"/>
</clipPath>
</defs>
<polyline points=" 6525,1755 6525,2115" clip-path="url(#cp8)"
	stroke="#000000" stroke-width="15px"/>
<!-- Forward arrow to point 6525,2115 -->
<polygon points=" 6495,2003 6525,2063 6555,2003 6495,2003"
	stroke="#000000" stroke-width="45px" stroke-miterlimit="8" fill="#000000"/>
<!-- Line -->
<defs>
<clipPath id="cp9">
	<path clip-rule="evenodd" d="M 1560,1080 H 11262 V 10057 H 1560 z
		M 3630,4163 3570,4163 3590,4286 3611,4286z
		M 8205,3964 8265,3964 8242,3953 8228,3953z"/>
</clipPath>
</defs>
<polyline points=" 3600,3960 3600,4275" clip-path="url(#cp9)"
	stroke="#8f0000" stroke-width="15px"/>
<!-- Forward arrow to point 3600,4275 -->
<polygon points=" 3570,4163 3600,4223 3630,4163 3570,4163"
	stroke="#8f0000" stroke-width="45px" stroke-miterlimit="8" fill="#8f0000"/>
<!-- Line -->
<defs>
<clipPath id="cp10">
	<path clip-rule="evenodd" d="M 1560,1080 H 11262 V 10057 H 1560 z
		M 5565,6233 5505,6233 5525,6356 5546,6356z
		M 8205,3964 8265,3964 8242,3953 8228,3953z"/>
</clipPath>
</defs>
<polyline points=" 5535,6030 5535,6345" clip-path="url(#cp10)"
	stroke="#008f00" stroke-width="15px"/>
<!-- Forward arrow to point 5535,6345 -->
<polygon points=" 5505,6233 5535,6293 5565,6233 5505,6233"
	stroke="#008f00" stroke-width="45px" stroke-miterlimit="8" fill="#008f00"/>
<!-- Line -->
<defs>
<clipPath id="cp11">
	<path clip-rule="evenodd" d="M 1560,1080 H 11262 V 10057 H 1560 z
		M 7410,8483 7350,8483 7370,8606 7391,8606z
		M 8205,3964 8265,3964 8242,3953 8228,3953z"/>
</clipPath>
</defs>
<polyline points=" 7380,8100 7380,8595" clip-path="url(#cp11)"
	stroke="#00008f" stroke-width="15px"/>
<!-- Forward arrow to point 7380,8595 -->
<polygon points=" 7350,8483 7380,8543 7410,8483 7350,8483"
	stroke="#00008f" stroke-width="45px" stroke-miterlimit="8" fill="#00008f"/>
<!-- Line -->
<defs>
<clipPath id="cp12">
	<path clip-rule="evenodd" d="M 1560,1080 H 11262 V 10057 H 1560 z
		M 10155,7403 10095,7403 10115,7526 10136,7526z
		M 8205,3964 8265,3964 8242,3953 8228,3953z"/>
</clipPath>
</defs>
<polyline points=" 10125,6030 10125,7515" clip-path="url(#cp12)"
	stroke="#000000" stroke-width="15px"/>
<!-- Forward arrow to point 10125,7515 -->
<polygon points=" 10095,7403 10125,7463 10155,7403 10095,7403"
	stroke="#000000" stroke-width="45px" stroke-miterlimit="8" fill="#000000"/>
<!-- Line -->
<defs>
<clipPath id="cp13">
	<path clip-rule="evenodd" d="M 1560,1080 H 11262 V 10057 H 1560 z
		M 2858,3930 2858,3990 2981,3971 2981,3950z
		M 8205,3964 8265,3964 8242,3953 8228,3953z"/>
</clipPath>
</defs>
<polyline points=" 1845,3960 2970,3960" clip-path="url(#cp13)"
	stroke="#000000" stroke-width="15px"/>
<!-- Forward arrow to point 2970,3960 -->
<polygon points=" 2858,3990 2918,3960 2858,3930 2858,3990"
	stroke="#000000" stroke-width="45px" stroke-miterlimit="8" fill="#000000"/>
<!-- Line -->
<rect x="9090" y="6030" width="1260" height="1935"
	stroke="#000000" stroke-width="8px"/>
</g>
</svg>
