<?xml version="1.0" encoding="UTF-8" standalone="no"?>
<!-- Creator: fig2dev Version 3.2.8b -->
<!-- CreationDate: 2022-08-07 20:33:01 -->
<!-- Magnification: 1.05 -->
<svg	xmlns="http://www.w3.org/2000/svg"
	xmlns:xlink="http://www.w3.org/1999/xlink"
	width="399pt" height="257pt"
	viewBox="933 888 6324 4077">
<g fill="none">
<!-- Line -->
<rect x="3690" y="900" width="495" height="270"
	stroke="#000000" stroke-width="8px"/>
<!-- Text -->
<text xml:space="preserve" x="3735" y="1125" fill="#000000" font-family="Helvetica" font-style="normal" font-weight="bold" font-size="144" text-anchor="start">VPN</text>
<!-- Line -->
<polyline points=" 3306,3326 2778,3326"
	stroke="#000000" stroke-width="8px"/>
<!-- Line -->
<polyline points=" 3837,3214 3837,3217 3836,3224 3834,3234 3831,3247 3827,3260 3823,3271 3817,3282
 3811,3290 3803,3297 3793,3303 3781,3307 3771,3310 3759,3313 3746,3315 3732,3318
 3717,3319 3700,3321 3683,3322 3664,3323 3646,3324 3627,3325 3609,3325 3590,3326
 3573,3326 3556,3326 3540,3326 3525,3326 3507,3326 3491,3326 3474,3326 3456,3326
 3437,3326 3417,3326 3395,3326 3373,3326 3351,3326 3333,3326 3319,3326 3310,3326
 3307,3326 3306,3326"
	stroke="#000000" stroke-width="8px" stroke-linejoin="bevel"/>
<!-- Line -->
<polyline points=" 2391,3439 2394,3436 2401,3429 2412,3418 2425,3406 2440,3393 2455,3381 2469,3371
 2483,3362 2497,3355 2512,3350 2528,3345 2540,3342 2554,3339 2569,3337 2585,3335
 2603,3333 2621,3331 2639,3330 2659,3329 2678,3328 2698,3327 2717,3327 2735,3326
 2753,3326 2770,3326 2786,3326 2802,3326 2819,3326 2835,3326 2852,3326 2870,3326
 2889,3326 2909,3326 2930,3326 2952,3326 2973,3326 2992,3326 3005,3326 3014,3326
 3017,3326 3018,3326"
	stroke="#000000" stroke-width="8px" stroke-linejoin="bevel"/>
<!-- Line -->
<polyline points=" 1476,3326 2004,3326"
	stroke="#000000" stroke-width="8px"/>
<!-- Line -->
<polyline points=" 945,3214 945,3217 946,3224 948,3234 951,3247 955,3260 959,3271 965,3282 971,3290
 979,3297 989,3303 1001,3307 1011,3310 1023,3313 1036,3315 1050,3318 1065,3319
 1082,3321 1099,3322 1118,3323 1136,3324 1155,3325 1173,3325 1192,3326 1209,3326
 1226,3326 1242,3326 1258,3326 1275,3326 1291,3326 1308,3326 1326,3326 1345,3326
 1365,3326 1387,3326 1409,3326 1431,3326 1449,3326 1463,3326 1472,3326 1475,3326
 1476,3326"
	stroke="#000000" stroke-width="8px" stroke-linejoin="bevel"/>
<!-- Line -->
<polyline points=" 2391,3439 2388,3436 2381,3429 2370,3418 2357,3406 2342,3393 2327,3381 2313,3371
 2299,3362 2285,3355 2270,3350 2255,3345 2242,3342 2228,3339 2213,3337 2197,3335
 2179,3333 2161,3331 2143,3330 2123,3329 2104,3328 2084,3327 2065,3327 2047,3326
 2029,3326 2012,3326 1996,3326 1981,3326 1963,3326 1947,3326 1930,3326 1912,3326
 1893,3326 1873,3326 1852,3326 1830,3326 1809,3326 1790,3326 1777,3326 1768,3326
 1765,3326 1764,3326"
	stroke="#000000" stroke-width="8px" stroke-linejoin="bevel"/>
<!-- Text -->
<text xml:space="preserve" x="2115" y="3735" fill="#000000" font-family="Helvetica" font-style="normal" font-weight="normal" font-size="144" text-anchor="start">64 bits</text>
<!-- Line -->
<rect x="4275" y="900" width="495" height="270"
	stroke="#000000" stroke-width="8px"/>
<!-- Text -->
<text xml:space="preserve" x="4320" y="1125" fill="#000000" font-family="Helvetica" font-style="normal" font-weight="bold" font-size="144" text-anchor="start">VPN</text>
<!-- Circle -->
<circle cx="5175" cy="1350" r="101"
	stroke="#000000" stroke-width="8px"/>
<!-- Line -->
<polyline points=" 5175,1260 5175,1440"
	stroke="#000000" stroke-width="8px"/>
<!-- Line -->
<polyline points=" 5085,1350 5265,1350"
	stroke="#000000" stroke-width="8px"/>
<!-- Text -->
<text xml:space="preserve" x="5040" y="1575" fill="#000000" font-family="Helvetica" font-style="normal" font-weight="normal" font-size="120" text-anchor="start">Hash</text>
<!-- Line -->
<polyline points=" 6636,4541 6108,4541"
	stroke="#000000" stroke-width="8px"/>
<!-- Line -->
<polyline points=" 7167,4429 7167,4432 7166,4439 7164,4449 7161,4462 7157,4475 7153,4486 7147,4497
 7141,4505 7133,4512 7123,4518 7111,4522 7101,4525 7089,4528 7076,4530 7062,4533
 7047,4534 7030,4536 7013,4537 6994,4538 6976,4539 6957,4540 6939,4540 6920,4541
 6903,4541 6886,4541 6870,4541 6855,4541 6837,4541 6821,4541 6804,4541 6786,4541
 6767,4541 6747,4541 6725,4541 6703,4541 6681,4541 6663,4541 6649,4541 6640,4541
 6637,4541 6636,4541"
	stroke="#000000" stroke-width="8px" stroke-linejoin="bevel"/>
<!-- Line -->
<polyline points=" 5721,4654 5724,4651 5731,4644 5742,4633 5755,4621 5770,4608 5785,4596 5799,4586
 5813,4577 5827,4570 5842,4565 5858,4560 5870,4557 5884,4554 5899,4552 5915,4550
 5933,4548 5951,4546 5969,4545 5989,4544 6008,4543 6028,4542 6047,4542 6065,4541
 6083,4541 6100,4541 6116,4541 6132,4541 6149,4541 6165,4541 6182,4541 6200,4541
 6219,4541 6239,4541 6260,4541 6282,4541 6303,4541 6322,4541 6335,4541 6344,4541
 6347,4541 6348,4541"
	stroke="#000000" stroke-width="8px" stroke-linejoin="bevel"/>
<!-- Line -->
<polyline points=" 4806,4541 5334,4541"
	stroke="#000000" stroke-width="8px"/>
<!-- Line -->
<polyline points=" 4275,4429 4275,4432 4276,4439 4278,4449 4281,4462 4285,4475 4289,4486 4295,4497
 4301,4505 4309,4512 4319,4518 4331,4522 4341,4525 4353,4528 4366,4530 4380,4533
 4395,4534 4412,4536 4429,4537 4448,4538 4466,4539 4485,4540 4503,4540 4522,4541
 4539,4541 4556,4541 4572,4541 4588,4541 4605,4541 4621,4541 4638,4541 4656,4541
 4675,4541 4695,4541 4717,4541 4739,4541 4761,4541 4779,4541 4793,4541 4802,4541
 4805,4541 4806,4541"
	stroke="#000000" stroke-width="8px" stroke-linejoin="bevel"/>
<!-- Line -->
<polyline points=" 5721,4654 5718,4651 5711,4644 5700,4633 5687,4621 5672,4608 5657,4596 5643,4586
 5629,4577 5615,4570 5600,4565 5585,4560 5572,4557 5558,4554 5543,4552 5527,4550
 5509,4548 5491,4546 5473,4545 5453,4544 5434,4543 5414,4542 5395,4542 5377,4541
 5359,4541 5342,4541 5326,4541 5311,4541 5293,4541 5277,4541 5260,4541 5242,4541
 5223,4541 5203,4541 5182,4541 5160,4541 5139,4541 5120,4541 5107,4541 5098,4541
 5095,4541 5094,4541"
	stroke="#000000" stroke-width="8px" stroke-linejoin="bevel"/>
<!-- Line -->
<rect x="1440" y="2745" width="1440" height="315"
	stroke="#000000" stroke-width="8px"/>
<!-- Text -->
<text xml:space="preserve" x="1957" y="2970" fill="#000000" font-family="Helvetica" font-style="normal" font-weight="normal" font-size="144" text-anchor="start">PPN</text>
<!-- Line -->
<rect x="945" y="2745" width="2970" height="315"
	stroke="#000000" stroke-width="8px"/>
<!-- Line -->
<rect x="4770" y="2745" width="1440" height="315"
	stroke="#000000" stroke-width="8px"/>
<!-- Text -->
<text xml:space="preserve" x="5287" y="2970" fill="#000000" font-family="Helvetica" font-style="normal" font-weight="normal" font-size="144" text-anchor="start">PPN</text>
<!-- Line -->
<rect x="4275" y="3555" width="2970" height="315"
	stroke="#000000" stroke-width="8px"/>
<!-- Text -->
<text xml:space="preserve" x="5595" y="3780" fill="#000000" font-family="Helvetica" font-style="normal" font-weight="normal" font-size="144" text-anchor="start">Tag</text>
<!-- Line -->
<rect x="5400" y="3150" width="810" height="315"
	stroke="#000000" stroke-width="8px"/>
<!-- Text -->
<text xml:space="preserve" x="5535" y="3375" fill="#000000" font-family="Helvetica" font-style="normal" font-weight="normal" font-size="144" text-anchor="start">PKEY</text>
<!-- Line -->
<rect x="6210" y="3150" width="810" height="315"
	stroke="#000000" stroke-width="8px"/>
<!-- Text -->
<text xml:space="preserve" x="6382" y="3375" fill="#000000" font-family="Helvetica" font-style="normal" font-weight="normal" font-size="144" text-anchor="start">psize</text>
<!-- Line -->
<rect x="4275" y="3960" width="2970" height="315"
	stroke="#000000" stroke-width="8px"/>
<!-- Text -->
<text xml:space="preserve" x="5512" y="4185" fill="#000000" font-family="Helvetica" font-style="normal" font-weight="normal" font-size="144" text-anchor="start">Chain</text>
<!-- Line -->
<rect x="4275" y="3150" width="2970" height="315"
	stroke="#000000" stroke-width="8px"/>
<!-- Line -->
<rect x="4275" y="2745" width="2970" height="315"
	stroke="#000000" stroke-width="8px"/>
<!-- Line -->
<polyline points=" 945,2610 2205,2070 2295,2070 3915,2610"
	stroke="#000000" stroke-width="8px" stroke-dasharray="10 30"/>
<!-- Line -->
<defs>
<clipPath id="cp0">
	<path clip-rule="evenodd" d="M 933,888 H 7257 V 4965 H 933 z
		M 2280,1484 2220,1484 2243,1627 2257,1627z"/>
</clipPath>
</defs>
<polyline points=" 3915,1170 3915,1350 2250,1350 2250,1620" clip-path="url(#cp0)"
	stroke="#000000" stroke-width="8px"/>
<!-- Forward arrow to point 2250,1620 -->
<polygon points=" 2220,1484 2250,1604 2280,1484 2220,1484"
	stroke="#000000" stroke-width="8px" stroke-miterlimit="8" fill="#000000"/>
<!-- Line -->
<rect x="990" y="1620" width="2835" height="450"
	stroke="#000000" stroke-width="8px"/>
<!-- Line -->
<rect x="2205" y="1620" width="90" height="450"
	stroke="#000000" stroke-width="8px" stroke-dasharray="40 40"/>
<!-- Line -->
<defs>
<clipPath id="cp1">
	<path clip-rule="evenodd" d="M 933,888 H 7257 V 4965 H 933 z
		M 6240,1484 6180,1484 6203,1627 6217,1627z"/>
</clipPath>
</defs>
<polyline points=" 4545,1170 4545,1350 6210,1350 6210,1620" clip-path="url(#cp1)"
	stroke="#000000" stroke-width="8px"/>
<!-- Forward arrow to point 6210,1620 -->
<polygon points=" 6180,1484 6210,1604 6240,1484 6180,1484"
	stroke="#000000" stroke-width="8px" stroke-miterlimit="8" fill="#000000"/>
<!-- Line -->
<rect x="4230" y="1620" width="2835" height="450"
	stroke="#000000" stroke-width="8px"/>
<!-- Line -->
<rect x="6165" y="1620" width="90" height="450"
	stroke="#000000" stroke-width="8px" stroke-dasharray="40 40"/>
<!-- Line -->
<polyline points=" 7110,2610 6255,2070 6165,2070 4230,2610"
	stroke="#000000" stroke-width="8px" stroke-dasharray="10 30"/>
<!-- Text -->
<text xml:space="preserve" x="5310" y="4950" fill="#000000" font-family="Helvetica" font-style="normal" font-weight="normal" font-size="144" text-anchor="start">4 x 64 bits</text>
<!-- Text -->
<text xml:space="preserve" x="1890" y="2640" fill="#000000" font-family="Helvetica" font-style="normal" font-weight="normal" font-size="144" text-anchor="start">Short Format</text>
<!-- Text -->
<text xml:space="preserve" x="5400" y="2610" fill="#000000" font-family="Helvetica" font-style="normal" font-weight="normal" font-size="144" text-anchor="start">Long Format</text>
<!-- Text -->
<text xml:space="preserve" x="5715" y="1110" fill="#000000" font-family="Helvetica" font-style="normal" font-weight="normal" font-size="144" text-anchor="start">Global VHPT</text>
<!-- Text -->
<text xml:space="preserve" x="1665" y="1080" fill="#000000" font-family="Helvetica" font-style="normal" font-weight="normal" font-size="144" text-anchor="start">Per-region VHPT</text>
</g>
</svg>
