<?xml version="1.0" encoding="UTF-8" standalone="no"?>
<!-- Creator: fig2dev Version 3.2.8b -->
<!-- CreationDate: 2022-08-07 20:33:01 -->
<!-- Magnification: 0.661 -->
<svg	xmlns="http://www.w3.org/2000/svg"
	xmlns:xlink="http://www.w3.org/1999/xlink"
	width="729pt" height="465pt"
	viewBox="473 -832 18361 11699">
<g fill="none">
<!-- Line -->
<rect x="3735" y="630" width="4590" height="1080" fill="#e1e1e1"
	stroke="#e1e1e1" stroke-width="8px"/>
<!-- Line -->
<polyline points=" 4770,2475 8325,3870 8325,4950 4770,3555 4770,2475" fill="#e1e1e1"
	stroke="#e1e1e1" stroke-width="8px"/>
<!-- Line -->
<polyline points=" 5695,4461 8310,6023 8300,7075 5695,5541 5695,4461" fill="#e1e1e1"
	stroke="#e1e1e1" stroke-width="8px"/>
<!-- Line -->
<polyline points=" 5686,6595 8301,8157 8304,9260 5670,7695 5686,6595" fill="#e1e1e1"
	stroke="#e1e1e1" stroke-width="8px"/>
<!-- Line -->
<rect x="2430" y="6615" width="3240" height="1080" fill="#e1e1e1"
	stroke="#e1e1e1" stroke-width="8px"/>
<!-- Line -->
<rect x="2430" y="5580" width="1395" height="2070" fill="#e1e1e1"
	stroke="#e1e1e1" stroke-width="8px"/>
<!-- Line -->
<rect x="9720" y="8190" width="2925" height="1080" fill="#e1e1e1"
	stroke="#e1e1e1" stroke-width="8px"/>
<!-- Line -->
<polyline points=" 9734,6039 12645,7065 12645,8190 9734,7119 9734,6039" fill="#e1e1e1"
	stroke="#e1e1e1" stroke-width="8px"/>
<!-- Text -->
<text xml:space="preserve" x="2655" y="1305" fill="#636363" font-family="Helvetica" font-style="normal" font-weight="bold" font-size="240" text-anchor="start">PGD</text>
<!-- Line -->
<rect x="8325" y="630" width="1395" height="180"
	stroke="#000000" stroke-width="8px"/>
<!-- Line -->
<rect x="8325" y="810" width="1395" height="180"
	stroke="#000000" stroke-width="8px"/>
<!-- Line -->
<rect x="8325" y="1350" width="1395" height="180"
	stroke="#000000" stroke-width="8px"/>
<!-- Line -->
<rect x="8325" y="1530" width="1395" height="180"
	stroke="#000000" stroke-width="8px"/>
<!-- Line -->
<rect x="8325" y="990" width="1395" height="180"
	stroke="#000000" stroke-width="8px"/>
<!-- Line -->
<rect x="8325" y="1170" width="1395" height="180"
	stroke="#000000" stroke-width="8px"/>
<!-- Line -->
<rect x="8325" y="630" width="1395" height="1080"
	stroke="#000000" stroke-width="15px"/>
<!-- Line -->
<rect x="8325" y="3870" width="1395" height="180"
	stroke="#000000" stroke-width="8px"/>
<!-- Line -->
<rect x="8325" y="4050" width="1395" height="180"
	stroke="#000000" stroke-width="8px"/>
<!-- Line -->
<rect x="8325" y="4590" width="1395" height="180"
	stroke="#000000" stroke-width="8px"/>
<!-- Line -->
<rect x="8325" y="4770" width="1395" height="180"
	stroke="#000000" stroke-width="8px"/>
<!-- Line -->
<rect x="8325" y="4230" width="1395" height="180"
	stroke="#000000" stroke-width="8px"/>
<!-- Line -->
<rect x="8325" y="4410" width="1395" height="180"
	stroke="#000000" stroke-width="8px"/>
<!-- Line -->
<rect x="8325" y="3870" width="1395" height="1080"
	stroke="#000000" stroke-width="15px"/>
<!-- Line -->
<rect x="8325" y="6030" width="1395" height="180"
	stroke="#000000" stroke-width="8px"/>
<!-- Line -->
<rect x="8325" y="6210" width="1395" height="180"
	stroke="#000000" stroke-width="8px"/>
<!-- Line -->
<rect x="8325" y="6750" width="1395" height="180"
	stroke="#000000" stroke-width="8px"/>
<!-- Line -->
<rect x="8325" y="6930" width="1395" height="180"
	stroke="#000000" stroke-width="8px"/>
<!-- Line -->
<rect x="8325" y="6390" width="1395" height="180"
	stroke="#000000" stroke-width="8px"/>
<!-- Line -->
<rect x="8325" y="6570" width="1395" height="180"
	stroke="#000000" stroke-width="8px"/>
<!-- Line -->
<rect x="8325" y="6030" width="1395" height="1080"
	stroke="#000000" stroke-width="15px"/>
<!-- Line -->
<rect x="8325" y="8190" width="1395" height="180"
	stroke="#000000" stroke-width="8px"/>
<!-- Line -->
<rect x="8325" y="8370" width="1395" height="180"
	stroke="#000000" stroke-width="8px"/>
<!-- Line -->
<rect x="8325" y="8910" width="1395" height="180"
	stroke="#000000" stroke-width="8px"/>
<!-- Line -->
<rect x="8325" y="9090" width="1395" height="180"
	stroke="#000000" stroke-width="8px"/>
<!-- Line -->
<rect x="8325" y="8550" width="1395" height="180"
	stroke="#000000" stroke-width="8px"/>
<!-- Line -->
<rect x="8325" y="8730" width="1395" height="180"
	stroke="#000000" stroke-width="8px"/>
<!-- Line -->
<rect x="8325" y="8190" width="1395" height="1080"
	stroke="#000000" stroke-width="15px"/>
<!-- Line -->
<rect x="1305" y="2475" width="1395" height="180"
	stroke="#000000" stroke-width="8px"/>
<!-- Line -->
<rect x="1305" y="2655" width="1395" height="180"
	stroke="#000000" stroke-width="8px"/>
<!-- Line -->
<rect x="1305" y="3195" width="1395" height="180"
	stroke="#000000" stroke-width="8px"/>
<!-- Line -->
<rect x="1305" y="3375" width="1395" height="180"
	stroke="#000000" stroke-width="8px"/>
<!-- Line -->
<rect x="1305" y="2835" width="1395" height="180"
	stroke="#000000" stroke-width="8px"/>
<!-- Line -->
<rect x="1305" y="3015" width="1395" height="180"
	stroke="#000000" stroke-width="8px"/>
<!-- Line -->
<rect x="1305" y="2475" width="1395" height="1080"
	stroke="#000000" stroke-width="15px"/>
<!-- Line -->
<rect x="3375" y="2475" width="1395" height="180"
	stroke="#000000" stroke-width="8px"/>
<!-- Line -->
<rect x="3375" y="2655" width="1395" height="180"
	stroke="#000000" stroke-width="8px"/>
<!-- Line -->
<rect x="3375" y="3195" width="1395" height="180"
	stroke="#000000" stroke-width="8px"/>
<!-- Line -->
<rect x="3375" y="3375" width="1395" height="180"
	stroke="#000000" stroke-width="8px"/>
<!-- Line -->
<rect x="3375" y="2835" width="1395" height="180"
	stroke="#000000" stroke-width="8px"/>
<!-- Line -->
<rect x="3375" y="3015" width="1395" height="180"
	stroke="#000000" stroke-width="8px"/>
<!-- Line -->
<rect x="3375" y="2475" width="1395" height="1080"
	stroke="#000000" stroke-width="15px"/>
<!-- Line -->
<rect x="2475" y="4500" width="1395" height="180"
	stroke="#000000" stroke-width="8px"/>
<!-- Line -->
<rect x="2475" y="4680" width="1395" height="180"
	stroke="#000000" stroke-width="8px"/>
<!-- Line -->
<rect x="2475" y="5220" width="1395" height="180"
	stroke="#000000" stroke-width="8px"/>
<!-- Line -->
<rect x="2475" y="5400" width="1395" height="180"
	stroke="#000000" stroke-width="8px"/>
<!-- Line -->
<rect x="2475" y="4860" width="1395" height="180"
	stroke="#000000" stroke-width="8px"/>
<!-- Line -->
<rect x="2475" y="5040" width="1395" height="180"
	stroke="#000000" stroke-width="8px"/>
<!-- Line -->
<rect x="2475" y="4500" width="1395" height="1080"
	stroke="#000000" stroke-width="15px"/>
<!-- Line -->
<rect x="4320" y="4500" width="1395" height="180"
	stroke="#000000" stroke-width="8px"/>
<!-- Line -->
<rect x="4320" y="4680" width="1395" height="180"
	stroke="#000000" stroke-width="8px"/>
<!-- Line -->
<rect x="4320" y="5220" width="1395" height="180"
	stroke="#000000" stroke-width="8px"/>
<!-- Line -->
<rect x="4320" y="5400" width="1395" height="180"
	stroke="#000000" stroke-width="8px"/>
<!-- Line -->
<rect x="4320" y="4860" width="1395" height="180"
	stroke="#000000" stroke-width="8px"/>
<!-- Line -->
<rect x="4320" y="5040" width="1395" height="180"
	stroke="#000000" stroke-width="8px"/>
<!-- Line -->
<rect x="4320" y="4500" width="1395" height="1080"
	stroke="#000000" stroke-width="15px"/>
<!-- Line -->
<rect x="2340" y="630" width="1395" height="180"
	stroke="#000000" stroke-width="8px"/>
<!-- Line -->
<rect x="2340" y="810" width="1395" height="180"
	stroke="#000000" stroke-width="8px"/>
<!-- Line -->
<rect x="2340" y="1350" width="1395" height="180"
	stroke="#000000" stroke-width="8px"/>
<!-- Line -->
<rect x="2340" y="1530" width="1395" height="180"
	stroke="#000000" stroke-width="8px"/>
<!-- Line -->
<rect x="2340" y="990" width="1395" height="180"
	stroke="#000000" stroke-width="8px"/>
<!-- Line -->
<rect x="2340" y="1170" width="1395" height="180"
	stroke="#000000" stroke-width="8px"/>
<!-- Line -->
<rect x="2340" y="630" width="1395" height="1080"
	stroke="#000000" stroke-width="15px"/>
<!-- Text -->
<text xml:space="preserve" x="3240" y="8145" fill="#000000" font-family="Helvetica" font-style="normal" font-weight="normal" font-size="144" text-anchor="start">PTE's for a contiguous</text>
<!-- Text -->
<text xml:space="preserve" x="3240" y="8415" fill="#000000" font-family="Helvetica" font-style="normal" font-weight="normal" font-size="144" text-anchor="start">region of virtual addresses</text>
<!-- Text -->
<text xml:space="preserve" x="675" y="5940" fill="#8f0000" font-family="Helvetica" font-style="normal" font-weight="bold" font-size="144" text-anchor="start">Conceptual view of a</text>
<!-- Text -->
<text xml:space="preserve" x="675" y="6210" fill="#8f0000" font-family="Helvetica" font-style="normal" font-weight="bold" font-size="144" text-anchor="start">hierarchial page table</text>
<!-- Line -->
<rect x="12690" y="9225" width="1395" height="180"
	stroke="#000000" stroke-width="8px"/>
<!-- Line -->
<rect x="12690" y="9405" width="1395" height="180"
	stroke="#000000" stroke-width="8px"/>
<!-- Line -->
<rect x="12690" y="9945" width="1395" height="180"
	stroke="#000000" stroke-width="8px"/>
<!-- Line -->
<rect x="12690" y="10125" width="1395" height="180"
	stroke="#000000" stroke-width="8px"/>
<!-- Line -->
<rect x="12690" y="9585" width="1395" height="180"
	stroke="#000000" stroke-width="8px"/>
<!-- Line -->
<rect x="12690" y="9765" width="1395" height="180"
	stroke="#000000" stroke-width="8px"/>
<!-- Line -->
<rect x="12690" y="9225" width="1395" height="1080"
	stroke="#000000" stroke-width="15px"/>
<!-- Line -->
<rect x="12690" y="8145" width="1395" height="180"
	stroke="#000000" stroke-width="8px"/>
<!-- Line -->
<rect x="12690" y="8325" width="1395" height="180"
	stroke="#000000" stroke-width="8px"/>
<!-- Line -->
<rect x="12690" y="8865" width="1395" height="180"
	stroke="#000000" stroke-width="8px"/>
<!-- Line -->
<rect x="12690" y="9045" width="1395" height="180"
	stroke="#000000" stroke-width="8px"/>
<!-- Line -->
<rect x="12690" y="8505" width="1395" height="180"
	stroke="#000000" stroke-width="8px"/>
<!-- Line -->
<rect x="12690" y="8685" width="1395" height="180"
	stroke="#000000" stroke-width="8px"/>
<!-- Line -->
<rect x="12690" y="8145" width="1395" height="1080"
	stroke="#000000" stroke-width="15px"/>
<!-- Line -->
<rect x="12690" y="7065" width="1395" height="180"
	stroke="#000000" stroke-width="8px"/>
<!-- Line -->
<rect x="12690" y="7245" width="1395" height="180"
	stroke="#000000" stroke-width="8px"/>
<!-- Line -->
<rect x="12690" y="7785" width="1395" height="180"
	stroke="#000000" stroke-width="8px"/>
<!-- Line -->
<rect x="12690" y="7965" width="1395" height="180"
	stroke="#000000" stroke-width="8px"/>
<!-- Line -->
<rect x="12690" y="7425" width="1395" height="180"
	stroke="#000000" stroke-width="8px"/>
<!-- Line -->
<rect x="12690" y="7605" width="1395" height="180"
	stroke="#000000" stroke-width="8px"/>
<!-- Line -->
<rect x="12690" y="7065" width="1395" height="1080"
	stroke="#000000" stroke-width="15px"/>
<!-- Text -->
<text xml:space="preserve" x="15435" y="360" fill="#000000" font-family="Helvetica" font-style="normal" font-weight="normal" font-size="144" text-anchor="start">PTE's entry for a virtual page is found</text>
<!-- Text -->
<text xml:space="preserve" x="15435" y="630" fill="#000000" font-family="Helvetica" font-style="normal" font-weight="normal" font-size="144" text-anchor="start">via simple offset from VLPT base</text>
<!-- Line -->
<defs>
<clipPath id="cp0">
	<path clip-rule="evenodd" d="M 473,-832 H 18834 V 10867 H 473 z
		M 14177,10320 14177,10290 14123,10298 14123,10312z"/>
</clipPath>
</defs>
<polyline points=" 15300,10305 14130,10305" clip-path="url(#cp0)"
	stroke="#000000" stroke-width="8px"/>
<!-- Forward arrow to point 14130,10305 -->
<polygon points=" 14177,10290 14147,10305 14177,10320 14177,10290"
	stroke="#000000" stroke-width="15px" stroke-miterlimit="8" fill="#000000"/>
<!-- Text -->
<text xml:space="preserve" x="15390" y="10395" fill="#000000" font-family="Helvetica" font-style="normal" font-weight="normal" font-size="144" text-anchor="start">2^64</text>
<!-- Line -->
<defs>
<clipPath id="cp1">
	<path clip-rule="evenodd" d="M 473,-832 H 18834 V 10867 H 473 z
		M 14132,-480 14132,-510 14078,-502 14078,-488z"/>
</clipPath>
</defs>
<polyline points=" 15255,-495 14085,-495" clip-path="url(#cp1)"
	stroke="#000000" stroke-width="8px"/>
<!-- Forward arrow to point 14085,-495 -->
<polygon points=" 14132,-510 14102,-495 14132,-480 14132,-510"
	stroke="#000000" stroke-width="15px" stroke-miterlimit="8" fill="#000000"/>
<!-- Text -->
<text xml:space="preserve" x="15345" y="-405" fill="#000000" font-family="Helvetica" font-style="normal" font-weight="normal" font-size="144" text-anchor="start">2^0</text>
<!-- Line -->
<rect x="8325" y="1710" width="1395" height="1080"
	stroke="#000000" stroke-width="15px"/>
<!-- Line -->
<rect x="8325" y="2790" width="1395" height="1080"
	stroke="#000000" stroke-width="15px"/>
<!-- Line -->
<rect x="8325" y="7110" width="1395" height="1080"
	stroke="#000000" stroke-width="15px"/>
<!-- Line -->
<rect x="8325" y="9270" width="1395" height="1080"
	stroke="#000000" stroke-width="8px" stroke-dasharray="60 60"/>
<!-- Line -->
<defs>
<clipPath id="cp2">
	<path clip-rule="evenodd" d="M 473,-832 H 18834 V 10867 H 473 z
		M 4125,2363 4065,2363 4088,2482 4102,2482z"/>
</clipPath>
</defs>
<polyline points=" 3330,720 4095,720 4095,2475" clip-path="url(#cp2)"
	stroke="#000000" stroke-width="8px"/>
<!-- Forward arrow to point 4095,2475 -->
<polygon points=" 4065,2363 4095,2423 4125,2363 4065,2363"
	stroke="#000000" stroke-width="45px" stroke-miterlimit="8" fill="#000000"/>
<!-- Line -->
<defs>
<clipPath id="cp3">
	<path clip-rule="evenodd" d="M 473,-832 H 18834 V 10867 H 473 z
		M 5205,4343 5145,4343 5168,4462 5182,4462z"/>
</clipPath>
</defs>
<polyline points=" 4410,2565 5175,2565 5175,4455" clip-path="url(#cp3)"
	stroke="#000000" stroke-width="8px"/>
<!-- Forward arrow to point 5175,4455 -->
<polygon points=" 5145,4343 5175,4403 5205,4343 5145,4343"
	stroke="#000000" stroke-width="45px" stroke-miterlimit="8" fill="#000000"/>
<!-- Line -->
<defs>
<clipPath id="cp4">
	<path clip-rule="evenodd" d="M 473,-832 H 18834 V 10867 H 473 z
		M 3135,4343 3075,4343 3098,4462 3112,4462z"/>
</clipPath>
</defs>
<polyline points=" 3870,2745 3105,2745 3105,4455" clip-path="url(#cp4)"
	stroke="#000000" stroke-width="8px"/>
<!-- Forward arrow to point 3105,4455 -->
<polygon points=" 3075,4343 3105,4403 3135,4343 3075,4343"
	stroke="#000000" stroke-width="45px" stroke-miterlimit="8" fill="#000000"/>
<!-- Line -->
<defs>
<clipPath id="cp5">
	<path clip-rule="evenodd" d="M 473,-832 H 18834 V 10867 H 473 z
		M 4991,5235 5050,5246 5052,5122 5032,5118z"/>
</clipPath>
</defs>
<polyline points=" 4545,7875 5040,5130" clip-path="url(#cp5)"
	stroke="#8e8e8e" stroke-width="15px"/>
<!-- Forward arrow to point 5040,5130 -->
<polygon points=" 5050,5246 5031,5182 4991,5235 5050,5246"
	stroke="#8e8e8e" stroke-width="45px" stroke-miterlimit="8" fill="#8e8e8e"/>
<!-- Line -->
<defs>
<clipPath id="cp6">
	<path clip-rule="evenodd" d="M 473,-832 H 18834 V 10867 H 473 z
		M 9877,3900 9877,3840 9758,3863 9758,3877z"/>
</clipPath>
</defs>
<polyline points=" 9405,720 10080,720 10080,3870 9765,3870" clip-path="url(#cp6)"
	stroke="#000000" stroke-width="8px"/>
<!-- Forward arrow to point 9765,3870 -->
<polygon points=" 9877,3840 9817,3870 9877,3900 9877,3840"
	stroke="#000000" stroke-width="45px" stroke-miterlimit="8" fill="#000000"/>
<!-- Line -->
<defs>
<clipPath id="cp7">
	<path clip-rule="evenodd" d="M 473,-832 H 18834 V 10867 H 473 z
		M 9916,6078 9926,6019 9804,6022 9802,6036z"/>
</clipPath>
</defs>
<polyline points=" 9405,3960 10080,3960 10080,6075 9810,6030" clip-path="url(#cp7)"
	stroke="#000000" stroke-width="8px"/>
<!-- Forward arrow to point 9810,6030 -->
<polygon points=" 9926,6019 9862,6039 9916,6078 9926,6019"
	stroke="#000000" stroke-width="45px" stroke-miterlimit="8" fill="#000000"/>
<!-- Line -->
<defs>
<clipPath id="cp8">
	<path clip-rule="evenodd" d="M 473,-832 H 18834 V 10867 H 473 z
		M 8213,8160 8213,8220 8332,8197 8332,8183z"/>
</clipPath>
</defs>
<polyline points=" 8685,4140 8055,4140 8055,8190 8325,8190" clip-path="url(#cp8)"
	stroke="#000000" stroke-width="8px"/>
<!-- Forward arrow to point 8325,8190 -->
<polygon points=" 8213,8220 8273,8190 8213,8160 8213,8220"
	stroke="#000000" stroke-width="45px" stroke-miterlimit="8" fill="#000000"/>
<!-- Line -->
<defs>
<clipPath id="cp9">
	<path clip-rule="evenodd" d="M 473,-832 H 18834 V 10867 H 473 z
		M 2010,2318 1950,2318 1973,2437 1987,2437z"/>
</clipPath>
</defs>
<polyline points=" 2745,900 1980,900 1980,2430" clip-path="url(#cp9)"
	stroke="#000000" stroke-width="8px"/>
<!-- Forward arrow to point 1980,2430 -->
<polygon points=" 1950,2318 1980,2378 2010,2318 1950,2318"
	stroke="#000000" stroke-width="45px" stroke-miterlimit="8" fill="#000000"/>
<!-- Line -->
<defs>
<clipPath id="cp10">
	<path clip-rule="evenodd" d="M 473,-832 H 18834 V 10867 H 473 z
		M 3209,5245 3265,5223 3201,5116 3181,5124z"/>
</clipPath>
</defs>
<polyline points=" 4275,7830 3195,5130" clip-path="url(#cp10)"
	stroke="#8e8e8e" stroke-width="15px"/>
<!-- Forward arrow to point 3195,5130 -->
<polygon points=" 3265,5223 3214,5179 3209,5245 3265,5223"
	stroke="#8e8e8e" stroke-width="45px" stroke-miterlimit="8" fill="#8e8e8e"/>
<!-- Line -->
<rect x="8325" y="4950" width="1395" height="1080"
	stroke="#000000" stroke-width="8px" stroke-dasharray="60 60"/>
<!-- Line -->
<rect x="8325" y="-450" width="1395" height="1080"
	stroke="#000000" stroke-width="8px" stroke-dasharray="60 60"/>
<!-- Line -->
<rect x="12690" y="5985" width="1395" height="1080"
	stroke="#000000" stroke-width="8px" stroke-dasharray="60 60"/>
<!-- Line -->
<polyline points=" 14310,7065 14310,10305"
	stroke="#000000" stroke-width="8px"/>
<!-- Line -->
<rect x="12690" y="3825" width="1395" height="1080"
	stroke="#000000" stroke-width="15px"/>
<!-- Line -->
<rect x="12690" y="2745" width="1395" height="1080"
	stroke="#000000" stroke-width="15px"/>
<!-- Line -->
<rect x="12690" y="1665" width="1395" height="1080"
	stroke="#000000" stroke-width="15px"/>
<!-- Line -->
<rect x="12690" y="585" width="1395" height="1080"
	stroke="#000000" stroke-width="15px"/>
<!-- Line -->
<rect x="12690" y="4905" width="1395" height="1080"
	stroke="#000000" stroke-width="15px"/>
<!-- Line -->
<rect x="12690" y="-495" width="1395" height="1080"
	stroke="#000000" stroke-width="15px"/>
<!-- Line -->
<defs>
<clipPath id="cp11">
	<path clip-rule="evenodd" d="M 473,-832 H 18834 V 10867 H 473 z
		M 14825,2258 14792,2208 14700,2292 14712,2310z"/>
</clipPath>
</defs>
<polyline points=" 17010,765 14715,2295" clip-path="url(#cp11)"
	stroke="#8e8e8e" stroke-width="15px"/>
<!-- Forward arrow to point 14715,2295 -->
<polygon points=" 14792,2208 14759,2266 14825,2258 14792,2208"
	stroke="#8e8e8e" stroke-width="45px" stroke-miterlimit="8" fill="#8e8e8e"/>
<!-- Line -->
<defs>
<clipPath id="cp12">
	<path clip-rule="evenodd" d="M 473,-832 H 18834 V 10867 H 473 z
		M 13028,7305 13028,7365 13147,7342 13147,7328z"/>
</clipPath>
</defs>
<polyline points=" 13140,1125 12330,1125 12330,7335 13140,7335" clip-path="url(#cp12)"
	stroke="#646464" stroke-width="8px"/>
<!-- Forward arrow to point 13140,7335 -->
<polygon points=" 13028,7365 13088,7335 13028,7305 13028,7365"
	stroke="#646464" stroke-width="45px" stroke-miterlimit="8" fill="#646464"/>
<!-- Line -->
<defs>
<clipPath id="cp13">
	<path clip-rule="evenodd" d="M 473,-832 H 18834 V 10867 H 473 z
		M 13792,7185 13792,7125 13673,7148 13673,7162z"/>
</clipPath>
</defs>
<polyline points=" 13770,135 14580,135 14580,7155 13680,7155" clip-path="url(#cp13)"
	stroke="#646464" stroke-width="8px"/>
<!-- Forward arrow to point 13680,7155 -->
<polygon points=" 13792,7125 13732,7155 13792,7185 13792,7125"
	stroke="#646464" stroke-width="45px" stroke-miterlimit="8" fill="#646464"/>
<!-- Line -->
<defs>
<clipPath id="cp14">
	<path clip-rule="evenodd" d="M 473,-832 H 18834 V 10867 H 473 z
		M 14177,7080 14177,7050 14123,7058 14123,7072z"/>
</clipPath>
</defs>
<polyline points=" 15300,7065 14130,7065" clip-path="url(#cp14)"
	stroke="#000000" stroke-width="8px"/>
<!-- Forward arrow to point 14130,7065 -->
<polygon points=" 14177,7050 14147,7065 14177,7080 14177,7050"
	stroke="#000000" stroke-width="15px" stroke-miterlimit="8" fill="#000000"/>
<!-- Line -->
<rect x="12060" y="-810" width="3015" height="11655" rx="105"
	stroke="#00008f" stroke-width="15px"/>
<!-- Line -->
<rect x="495" y="135" width="6120" height="6255" rx="105"
	stroke="#8f0000" stroke-width="15px"/>
<!-- Line -->
<rect x="7560" y="-810" width="3015" height="11655" rx="105"
	stroke="#008f00" stroke-width="15px"/>
<!-- Line -->
<rect x="10890" y="6255" width="900" height="3240" rx="105" fill="#ffffff"
	stroke="#8f008f" stroke-width="15px"/>
<!-- Text -->
<text xml:space="preserve" x="7740" y="10710" fill="#008f00" font-family="Helvetica" font-style="normal" font-weight="bold" font-size="144" text-anchor="start">Physical Frames</text>
<!-- Text -->
<g transform="translate(14445,7605) rotate(-270)" >
<text xml:space="preserve" x="0" y="0" fill="#000000" font-family="Helvetica" font-style="normal" font-weight="normal" font-size="144" text-anchor="start">Virtual Linear Page Table</text>
</g><!-- Text -->
<text xml:space="preserve" x="15435" y="7155" fill="#000000" font-family="Helvetica" font-style="normal" font-weight="normal" font-size="144" text-anchor="start">VLPT Base</text>
<!-- Text -->
<text xml:space="preserve" x="12240" y="10755" fill="#00008f" font-family="Helvetica" font-style="normal" font-weight="bold" font-size="144" text-anchor="start">Virtual Address Space</text>
<!-- Text -->
<text xml:space="preserve" x="11250" y="8415" fill="#000000" font-family="Helvetica" font-style="normal" font-weight="bold" font-size="240" text-anchor="start">B</text>
<!-- Text -->
<text xml:space="preserve" x="11250" y="7965" fill="#000000" font-family="Helvetica" font-style="normal" font-weight="bold" font-size="240" text-anchor="start">L</text>
<!-- Text -->
<text xml:space="preserve" x="11250" y="7605" fill="#000000" font-family="Helvetica" font-style="normal" font-weight="bold" font-size="240" text-anchor="start">T</text>
<!-- Text -->
<text xml:space="preserve" x="1575" y="3150" fill="#636363" font-family="Helvetica" font-style="normal" font-weight="bold" font-size="240" text-anchor="start">PMD</text>
<!-- Text -->
<text xml:space="preserve" x="3645" y="3150" fill="#636363" font-family="Helvetica" font-style="normal" font-weight="bold" font-size="240" text-anchor="start">PMD</text>
<!-- Text -->
<text xml:space="preserve" x="2790" y="5175" fill="#636363" font-family="Helvetica" font-style="normal" font-weight="bold" font-size="240" text-anchor="start">PTE</text>
<!-- Text -->
<text xml:space="preserve" x="4680" y="5175" fill="#636363" font-family="Helvetica" font-style="normal" font-weight="bold" font-size="240" text-anchor="start">PTE</text>
<!-- Text -->
<text xml:space="preserve" x="8640" y="4545" fill="#636363" font-family="Helvetica" font-style="normal" font-weight="bold" font-size="240" text-anchor="start">PMD</text>
<!-- Text -->
<text xml:space="preserve" x="8640" y="1305" fill="#636363" font-family="Helvetica" font-style="normal" font-weight="bold" font-size="240" text-anchor="start">PGD</text>
<!-- Text -->
<text xml:space="preserve" x="8640" y="6705" fill="#636363" font-family="Helvetica" font-style="normal" font-weight="bold" font-size="240" text-anchor="start">PTE</text>
<!-- Text -->
<text xml:space="preserve" x="8640" y="8865" fill="#636363" font-family="Helvetica" font-style="normal" font-weight="bold" font-size="240" text-anchor="start">PTE</text>
<!-- Text -->
<text xml:space="preserve" x="13005" y="7740" fill="#636363" font-family="Helvetica" font-style="normal" font-weight="bold" font-size="240" text-anchor="start">PTE</text>
<!-- Text -->
<text xml:space="preserve" x="13005" y="8820" fill="#636363" font-family="Helvetica" font-style="normal" font-weight="bold" font-size="240" text-anchor="start">PTE</text>
<!-- Line -->
<polyline points=" 8864,10006 8792,10006 8792,10076 8864,10076" fill="#ffffff"
	stroke="#000000" stroke-width="8px"/>
<!-- Line -->
<polyline points=" 8864,9577 8792,9577 8792,9647 8864,9647" fill="#ffffff"
	stroke="#000000" stroke-width="8px"/>
<!-- Line -->
<polyline points=" 9150,9577 9221,9577 9221,9647 9150,9647" fill="#ffffff"
	stroke="#000000" stroke-width="8px"/>
<!-- Line -->
<polyline points=" 9150,9720 9221,9720 9221,9790 9150,9790" fill="#ffffff"
	stroke="#000000" stroke-width="8px"/>
<!-- Line -->
<polyline points=" 9150,9863 9221,9863 9221,9933 9150,9933" fill="#ffffff"
	stroke="#000000" stroke-width="8px"/>
<!-- Line -->
<polyline points=" 9150,10006 9221,10006 9221,10076 9150,10076" fill="#ffffff"
	stroke="#000000" stroke-width="8px"/>
<!-- Line -->
<polyline points=" 8864,9863 8792,9863 8792,9933 8864,9933" fill="#ffffff"
	stroke="#000000" stroke-width="8px"/>
<!-- Line -->
<polyline points=" 8864,9720 8792,9720 8792,9790 8864,9790" fill="#ffffff"
	stroke="#000000" stroke-width="8px"/>
<!-- Line -->
<rect x="8864" y="9549" width="286" height="564" fill="#e5e5e5"
	stroke="#000000" stroke-width="8px"/>
<!-- Arc -->
<path d="M 8935,9542 A 72 72 0 1 0 9078 9542" fill="#ffffff"
	stroke="#000000" stroke-width="8px"/>
</g>
</svg>
