<?xml version="1.0" encoding="UTF-8" standalone="no"?>
<!-- Creator: fig2dev Version 3.2.8b -->
<!-- CreationDate: 2022-08-07 20:33:01 -->
<!-- Magnification: 1.05 -->
<svg	xmlns="http://www.w3.org/2000/svg"
	xmlns:xlink="http://www.w3.org/1999/xlink"
	width="707pt" height="434pt"
	viewBox="237 1688 11223 6877">
<g fill="none">
<!-- Line -->
<rect x="8865" y="3825" width="1170" height="2070"
	stroke="#000000" stroke-width="8px"/>
<!-- Line -->
<rect x="8865" y="4950" width="1170" height="945" fill="#0000ff"
	stroke="#000000" stroke-width="8px"/>
<!-- Line -->
<rect x="8865" y="1755" width="1170" height="2070"
	stroke="#000000" stroke-width="8px"/>
<!-- Line -->
<rect x="8865" y="5895" width="1170" height="2070"
	stroke="#000000" stroke-width="8px"/>
<!-- Line -->
<rect x="8730" y="1710" width="1440" height="6345"
	stroke="#717571" stroke-width="15px" stroke-dasharray="60 60"/>
<!-- Text -->
<text xml:space="preserve" x="8460" y="8325" fill="#008f00" font-family="Helvetica" font-style="normal" font-weight="bold" font-size="144" text-anchor="start">Physical Page Frames</text>
<!-- Text -->
<text xml:space="preserve" x="8910" y="8505" fill="#000000" font-family="Helvetica" font-style="normal" font-weight="normal" font-size="120" text-anchor="start">(System Memory)</text>
<!-- Text -->
<text xml:space="preserve" x="10215" y="5895" fill="#000000" font-family="Courier" font-style="normal" font-weight="normal" font-size="144" text-anchor="start">0x10000000</text>
<!-- Text -->
<g transform="translate(10395,5220) rotate(-90)" >
<text xml:space="preserve" x="0" y="0" fill="#000000" font-family="Helvetica" font-style="normal" font-weight="bold" font-size="120" text-anchor="start">Page Size</text>
</g><!-- Text -->
<text xml:space="preserve" x="10215" y="3960" fill="#000000" font-family="Courier" font-style="normal" font-weight="normal" font-size="144" text-anchor="start">0x10001000</text>
<!-- Line -->
<rect x="495" y="4005" width="1080" height="405"
	stroke="#000000" stroke-width="8px"/>
<!-- Line -->
<rect x="1575" y="4005" width="1080" height="405"
	stroke="#000000" stroke-width="8px"/>
<!-- Line -->
<rect x="1575" y="4410" width="1080" height="405"
	stroke="#000000" stroke-width="8px"/>
<!-- Line -->
<rect x="495" y="4410" width="1080" height="405"
	stroke="#000000" stroke-width="8px"/>
<!-- Line -->
<rect x="495" y="4815" width="2160" height="405"
	stroke="#000000" stroke-width="8px" stroke-dasharray="10 30"/>
<!-- Line -->
<rect x="270" y="3645" width="2655" height="1845"
	stroke="#717571" stroke-width="30px" stroke-dasharray="40 40"/>
<!-- Text -->
<text xml:space="preserve" x="495" y="3915" fill="#ff0000" font-family="Helvetica" font-style="normal" font-weight="normal" font-size="144" text-anchor="start">Level 1</text>
<!-- Text -->
<text xml:space="preserve" x="855" y="4275" fill="#000000" font-family="Helvetica" font-style="normal" font-weight="normal" font-size="120" text-anchor="start">Page</text>
<!-- Text -->
<text xml:space="preserve" x="1665" y="4275" fill="#000000" font-family="Helvetica" font-style="normal" font-weight="normal" font-size="120" text-anchor="start">Physical Page</text>
<!-- Text -->
<text xml:space="preserve" x="855" y="4680" fill="#000000" font-family="Helvetica" font-style="normal" font-weight="normal" font-size="120" text-anchor="start">Page</text>
<!-- Text -->
<text xml:space="preserve" x="1665" y="4680" fill="#000000" font-family="Helvetica" font-style="normal" font-weight="normal" font-size="120" text-anchor="start">Physical Page</text>
<!-- Line -->
<rect x="3285" y="4005" width="1080" height="405"
	stroke="#000000" stroke-width="8px"/>
<!-- Line -->
<rect x="4365" y="4005" width="1080" height="405"
	stroke="#000000" stroke-width="8px"/>
<!-- Line -->
<rect x="4365" y="4410" width="1080" height="405"
	stroke="#000000" stroke-width="8px"/>
<!-- Line -->
<rect x="3285" y="4410" width="1080" height="405"
	stroke="#000000" stroke-width="8px"/>
<!-- Line -->
<rect x="3285" y="4815" width="2160" height="405"
	stroke="#000000" stroke-width="8px" stroke-dasharray="10 30"/>
<!-- Line -->
<rect x="3060" y="3645" width="2655" height="1845"
	stroke="#717571" stroke-width="30px" stroke-dasharray="40 40"/>
<!-- Text -->
<text xml:space="preserve" x="3285" y="3915" fill="#ff0000" font-family="Helvetica" font-style="normal" font-weight="normal" font-size="144" text-anchor="start">Level 2</text>
<!-- Text -->
<text xml:space="preserve" x="3645" y="4275" fill="#000000" font-family="Helvetica" font-style="normal" font-weight="normal" font-size="120" text-anchor="start">Page</text>
<!-- Text -->
<text xml:space="preserve" x="4455" y="4275" fill="#000000" font-family="Helvetica" font-style="normal" font-weight="normal" font-size="120" text-anchor="start">Physical Page</text>
<!-- Text -->
<text xml:space="preserve" x="3645" y="4680" fill="#000000" font-family="Helvetica" font-style="normal" font-weight="normal" font-size="120" text-anchor="start">Page</text>
<!-- Text -->
<text xml:space="preserve" x="4455" y="4680" fill="#000000" font-family="Helvetica" font-style="normal" font-weight="normal" font-size="120" text-anchor="start">Physical Page</text>
<!-- Line -->
<rect x="6075" y="4005" width="1080" height="405"
	stroke="#000000" stroke-width="8px"/>
<!-- Line -->
<rect x="7155" y="4005" width="1080" height="405"
	stroke="#000000" stroke-width="8px"/>
<!-- Line -->
<rect x="7155" y="4410" width="1080" height="405"
	stroke="#000000" stroke-width="8px"/>
<!-- Line -->
<rect x="6075" y="4410" width="1080" height="405"
	stroke="#000000" stroke-width="8px"/>
<!-- Line -->
<rect x="6075" y="4815" width="2160" height="405"
	stroke="#000000" stroke-width="8px" stroke-dasharray="10 30"/>
<!-- Line -->
<rect x="5850" y="3645" width="2655" height="1845"
	stroke="#717571" stroke-width="30px" stroke-dasharray="40 40"/>
<!-- Text -->
<text xml:space="preserve" x="6075" y="3915" fill="#ff0000" font-family="Helvetica" font-style="normal" font-weight="normal" font-size="144" text-anchor="start">Level 3</text>
<!-- Text -->
<text xml:space="preserve" x="6435" y="4275" fill="#000000" font-family="Helvetica" font-style="normal" font-weight="normal" font-size="120" text-anchor="start">Page</text>
<!-- Text -->
<text xml:space="preserve" x="7245" y="4275" fill="#000000" font-family="Helvetica" font-style="normal" font-weight="normal" font-size="120" text-anchor="start">Physical Page</text>
<!-- Text -->
<text xml:space="preserve" x="6435" y="4680" fill="#000000" font-family="Helvetica" font-style="normal" font-weight="normal" font-size="120" text-anchor="start">Page</text>
<!-- Text -->
<text xml:space="preserve" x="7245" y="4680" fill="#000000" font-family="Helvetica" font-style="normal" font-weight="normal" font-size="120" text-anchor="start">Physical Page</text>
<!-- Line -->
<rect x="6165" y="2295" width="1305" height="540"
	stroke="#000000" stroke-width="8px"/>
<!-- Line -->
<defs>
<clipPath id="cp0">
	<path clip-rule="evenodd" d="M 237,1688 H 11460 V 8565 H 237 z
		M 1936,2190 1936,2130 1790,2150 1790,2171z
		M 7334,2130 7334,2190 7481,2171 7481,2150z"/>
</clipPath>
</defs>
<polyline points=" 7470,2160 1800,2160" clip-path="url(#cp0)"
	stroke="#000000" stroke-width="15px"/>
<!-- Forward arrow to point 1800,2160 -->
<polygon points=" 1936,2130 1816,2160 1936,2190 1936,2130"
	stroke="#000000" stroke-width="8px" stroke-miterlimit="8" fill="#000000"/>
<!-- Backward arrow to point 7470,2160 -->
<polygon points=" 7334,2190 7454,2160 7334,2130 7334,2190"
	stroke="#000000" stroke-width="8px" stroke-miterlimit="8" fill="#000000"/>
<!-- Line -->
<rect x="4725" y="2295" width="1440" height="540"
	stroke="#000000" stroke-width="8px"/>
<!-- Line -->
<rect x="3285" y="2295" width="1440" height="540"
	stroke="#000000" stroke-width="8px"/>
<!-- Line -->
<rect x="1845" y="2295" width="1440" height="540"
	stroke="#000000" stroke-width="8px"/>
<!-- Text -->
<text xml:space="preserve" x="6525" y="2655" fill="#0000ff" font-family="Helvetica" font-style="normal" font-weight="bold" font-size="144" text-anchor="start">Offset</text>
<!-- Text -->
<text xml:space="preserve" x="3870" y="2025" fill="#000000" font-family="Helvetica" font-style="normal" font-weight="bold" font-size="144" text-anchor="start">Virtual Address</text>
<!-- Text -->
<text xml:space="preserve" x="5085" y="2655" fill="#008f00" font-family="Helvetica" font-style="normal" font-weight="bold" font-size="144" text-anchor="start">Level 3</text>
<!-- Text -->
<text xml:space="preserve" x="3690" y="2655" fill="#008f00" font-family="Helvetica" font-style="normal" font-weight="bold" font-size="144" text-anchor="start">Level 2</text>
<!-- Text -->
<text xml:space="preserve" x="2205" y="2655" fill="#008f00" font-family="Helvetica" font-style="normal" font-weight="bold" font-size="144" text-anchor="start">Level 1</text>
<!-- Line -->
<polyline points=" 9089,1972 9018,1972 9018,2042 9089,2042" fill="#ffffff"
	stroke="#000000" stroke-width="8px"/>
<!-- Line -->
<polyline points=" 9089,2115 9018,2115 9018,2185 9089,2185" fill="#ffffff"
	stroke="#000000" stroke-width="8px"/>
<!-- Line -->
<polyline points=" 9089,2258 9018,2258 9018,2328 9089,2328" fill="#ffffff"
	stroke="#000000" stroke-width="8px"/>
<!-- Line -->
<polyline points=" 9089,2401 9018,2401 9018,2471 9089,2471" fill="#ffffff"
	stroke="#000000" stroke-width="8px"/>
<!-- Line -->
<polyline points=" 9089,2543 9018,2543 9018,2614 9089,2614" fill="#ffffff"
	stroke="#000000" stroke-width="8px"/>
<!-- Line -->
<polyline points=" 9089,2686 9018,2686 9018,2757 9089,2757" fill="#ffffff"
	stroke="#000000" stroke-width="8px"/>
<!-- Line -->
<polyline points=" 9089,2829 9018,2829 9018,2900 9089,2900" fill="#ffffff"
	stroke="#000000" stroke-width="8px"/>
<!-- Line -->
<polyline points=" 9089,2972 9018,2972 9018,3043 9089,3043" fill="#ffffff"
	stroke="#000000" stroke-width="8px"/>
<!-- Line -->
<polyline points=" 9089,3115 9018,3115 9018,3185 9089,3185" fill="#ffffff"
	stroke="#000000" stroke-width="8px"/>
<!-- Line -->
<polyline points=" 9089,3258 9018,3258 9018,3328 9089,3328" fill="#ffffff"
	stroke="#000000" stroke-width="8px"/>
<!-- Line -->
<polyline points=" 9089,3401 9018,3401 9018,3471 9089,3471" fill="#ffffff"
	stroke="#000000" stroke-width="8px"/>
<!-- Line -->
<polyline points=" 9089,3544 9018,3544 9018,3614 9089,3614" fill="#ffffff"
	stroke="#000000" stroke-width="8px"/>
<!-- Line -->
<polyline points=" 9803,3115 9875,3115 9875,3185 9803,3185" fill="#ffffff"
	stroke="#000000" stroke-width="8px"/>
<!-- Line -->
<polyline points=" 9803,3258 9875,3258 9875,3328 9803,3328" fill="#ffffff"
	stroke="#000000" stroke-width="8px"/>
<!-- Line -->
<polyline points=" 9803,3401 9875,3401 9875,3471 9803,3471" fill="#ffffff"
	stroke="#000000" stroke-width="8px"/>
<!-- Line -->
<polyline points=" 9803,3544 9875,3544 9875,3614 9803,3614" fill="#ffffff"
	stroke="#000000" stroke-width="8px"/>
<!-- Line -->
<polyline points=" 9803,2543 9875,2543 9875,2614 9803,2614" fill="#ffffff"
	stroke="#000000" stroke-width="8px"/>
<!-- Line -->
<polyline points=" 9803,2686 9875,2686 9875,2757 9803,2757" fill="#ffffff"
	stroke="#000000" stroke-width="8px"/>
<!-- Line -->
<polyline points=" 9803,2829 9875,2829 9875,2900 9803,2900" fill="#ffffff"
	stroke="#000000" stroke-width="8px"/>
<!-- Line -->
<polyline points=" 9803,1972 9875,1972 9875,2042 9803,2042" fill="#ffffff"
	stroke="#000000" stroke-width="8px"/>
<!-- Line -->
<polyline points=" 9803,2115 9875,2115 9875,2185 9803,2185" fill="#ffffff"
	stroke="#000000" stroke-width="8px"/>
<!-- Line -->
<polyline points=" 9803,2258 9875,2258 9875,2328 9803,2328" fill="#ffffff"
	stroke="#000000" stroke-width="8px"/>
<!-- Line -->
<polyline points=" 9803,2401 9875,2401 9875,2471 9803,2471" fill="#ffffff"
	stroke="#000000" stroke-width="8px"/>
<!-- Line -->
<polyline points=" 9803,2972 9875,2972 9875,3043 9803,3043" fill="#ffffff"
	stroke="#000000" stroke-width="8px"/>
<!-- Line -->
<polyline points=" 9089,6067 9018,6067 9018,6137 9089,6137" fill="#ffffff"
	stroke="#000000" stroke-width="8px"/>
<!-- Line -->
<polyline points=" 9089,6210 9018,6210 9018,6280 9089,6280" fill="#ffffff"
	stroke="#000000" stroke-width="8px"/>
<!-- Line -->
<polyline points=" 9089,6353 9018,6353 9018,6423 9089,6423" fill="#ffffff"
	stroke="#000000" stroke-width="8px"/>
<!-- Line -->
<polyline points=" 9089,6496 9018,6496 9018,6566 9089,6566" fill="#ffffff"
	stroke="#000000" stroke-width="8px"/>
<!-- Line -->
<polyline points=" 9089,6638 9018,6638 9018,6709 9089,6709" fill="#ffffff"
	stroke="#000000" stroke-width="8px"/>
<!-- Line -->
<polyline points=" 9089,6781 9018,6781 9018,6852 9089,6852" fill="#ffffff"
	stroke="#000000" stroke-width="8px"/>
<!-- Line -->
<polyline points=" 9089,6924 9018,6924 9018,6995 9089,6995" fill="#ffffff"
	stroke="#000000" stroke-width="8px"/>
<!-- Line -->
<polyline points=" 9089,7067 9018,7067 9018,7138 9089,7138" fill="#ffffff"
	stroke="#000000" stroke-width="8px"/>
<!-- Line -->
<polyline points=" 9089,7210 9018,7210 9018,7280 9089,7280" fill="#ffffff"
	stroke="#000000" stroke-width="8px"/>
<!-- Line -->
<polyline points=" 9089,7353 9018,7353 9018,7423 9089,7423" fill="#ffffff"
	stroke="#000000" stroke-width="8px"/>
<!-- Line -->
<polyline points=" 9089,7496 9018,7496 9018,7566 9089,7566" fill="#ffffff"
	stroke="#000000" stroke-width="8px"/>
<!-- Line -->
<polyline points=" 9089,7639 9018,7639 9018,7709 9089,7709" fill="#ffffff"
	stroke="#000000" stroke-width="8px"/>
<!-- Line -->
<polyline points=" 9803,7210 9875,7210 9875,7280 9803,7280" fill="#ffffff"
	stroke="#000000" stroke-width="8px"/>
<!-- Line -->
<polyline points=" 9803,7353 9875,7353 9875,7423 9803,7423" fill="#ffffff"
	stroke="#000000" stroke-width="8px"/>
<!-- Line -->
<polyline points=" 9803,7496 9875,7496 9875,7566 9803,7566" fill="#ffffff"
	stroke="#000000" stroke-width="8px"/>
<!-- Line -->
<polyline points=" 9803,7639 9875,7639 9875,7709 9803,7709" fill="#ffffff"
	stroke="#000000" stroke-width="8px"/>
<!-- Line -->
<polyline points=" 9803,6638 9875,6638 9875,6709 9803,6709" fill="#ffffff"
	stroke="#000000" stroke-width="8px"/>
<!-- Line -->
<polyline points=" 9803,6781 9875,6781 9875,6852 9803,6852" fill="#ffffff"
	stroke="#000000" stroke-width="8px"/>
<!-- Line -->
<polyline points=" 9803,6924 9875,6924 9875,6995 9803,6995" fill="#ffffff"
	stroke="#000000" stroke-width="8px"/>
<!-- Line -->
<polyline points=" 9803,6067 9875,6067 9875,6137 9803,6137" fill="#ffffff"
	stroke="#000000" stroke-width="8px"/>
<!-- Line -->
<polyline points=" 9803,6210 9875,6210 9875,6280 9803,6280" fill="#ffffff"
	stroke="#000000" stroke-width="8px"/>
<!-- Line -->
<polyline points=" 9803,6353 9875,6353 9875,6423 9803,6423" fill="#ffffff"
	stroke="#000000" stroke-width="8px"/>
<!-- Line -->
<polyline points=" 9803,6496 9875,6496 9875,6566 9803,6566" fill="#ffffff"
	stroke="#000000" stroke-width="8px"/>
<!-- Line -->
<polyline points=" 9803,7067 9875,7067 9875,7138 9803,7138" fill="#ffffff"
	stroke="#000000" stroke-width="8px"/>
<!-- Line -->
<rect x="9089" y="1944" width="714" height="1707" fill="#e5e5e5"
	stroke="#000000" stroke-width="8px"/>
<!-- Line -->
<rect x="9089" y="6039" width="714" height="1707" fill="#e5e5e5"
	stroke="#000000" stroke-width="8px"/>
<!-- Arc -->
<path d="M 9375,1937 A 72 72 0 1 0 9518 1937" fill="#ffffff"
	stroke="#000000" stroke-width="8px"/>
<!-- Arc -->
<path d="M 9375,6032 A 72 72 0 1 0 9518 6032" fill="#ffffff"
	stroke="#000000" stroke-width="8px"/>
<!-- Arc -->
<defs>
<clipPath id="cp1">
	<path clip-rule="evenodd" d="M 237,1688 H 11460 V 8565 H 237 z
		M 8864,4850 8807,4869 8858,4963 8878,4957z
		M 7334,2130 7334,2190 7481,2171 7481,2150z"/>
</clipPath>
</defs>
<path d="M 6840,2835 A 3290 3290 0 0 1 8865 4950" clip-path="url(#cp1)"
	stroke="#0000ff" stroke-width="15px"/>
<!-- Forward arrow to point 8865,4950 -->
<polygon points=" 8807,4869 8854,4917 8864,4850 8807,4869"
	stroke="#0000ff" stroke-width="30px" stroke-miterlimit="8" fill="#0000ff"/>
<!-- Arc -->
<defs>
<clipPath id="cp2">
	<path clip-rule="evenodd" d="M 237,1688 H 11460 V 8565 H 237 z
		M 1438,4140 1354,4054 1235,4230 1260,4255z
		M 7334,2130 7334,2190 7481,2171 7481,2150z"/>
</clipPath>
</defs>
<path d="M 2295,2835 A 4888 4888 0 0 1 1260 4230" clip-path="url(#cp2)"
	stroke="#000000" stroke-width="30px"/>
<!-- Forward arrow to point 1260,4230 -->
<polygon points=" 1354,4054 1310,4181 1438,4140 1354,4054"
	stroke="#000000" stroke-width="60px" stroke-miterlimit="8" fill="#000000"/>
<!-- Arc -->
<defs>
<clipPath id="cp3">
	<path clip-rule="evenodd" d="M 237,1688 H 11460 V 8565 H 237 z
		M 4165,4157 4069,4086 3980,4279 4009,4300z
		M 7334,2130 7334,2190 7481,2171 7481,2150z"/>
</clipPath>
</defs>
<path d="M 4410,2835 A 1899 1899 0 0 1 4005 4275" clip-path="url(#cp3)"
	stroke="#000000" stroke-width="30px"/>
<!-- Forward arrow to point 4005,4275 -->
<polygon points=" 4069,4086 4046,4219 4165,4157 4069,4086"
	stroke="#000000" stroke-width="60px" stroke-miterlimit="8" fill="#000000"/>
<!-- Arc -->
<defs>
<clipPath id="cp4">
	<path clip-rule="evenodd" d="M 237,1688 H 11460 V 8565 H 237 z
		M 6787,4398 6686,4463 6835,4615 6865,4595z
		M 7334,2130 7334,2190 7481,2171 7481,2150z"/>
</clipPath>
</defs>
<path d="M 5850,2835 A 14141 14141 0 0 0 6840 4590" clip-path="url(#cp4)"
	stroke="#000000" stroke-width="30px"/>
<!-- Forward arrow to point 6840,4590 -->
<polygon points=" 6686,4463 6802,4531 6787,4398 6686,4463"
	stroke="#000000" stroke-width="60px" stroke-miterlimit="8" fill="#000000"/>
<!-- Arc -->
<defs>
<clipPath id="cp5">
	<path clip-rule="evenodd" d="M 237,1688 H 11460 V 8565 H 237 z
		M 8637,5817 8625,5937 8836,5915 8840,5879z
		M 7334,2130 7334,2190 7481,2171 7481,2150z"/>
</clipPath>
</defs>
<path d="M 7470,4815 A 1441 1441 0 0 0 8820 5895" clip-path="url(#cp5)"
	stroke="#000000" stroke-width="30px"/>
<!-- Forward arrow to point 8820,5895 -->
<polygon points=" 8625,5937 8751,5888 8637,5817 8625,5937"
	stroke="#000000" stroke-width="60px" stroke-miterlimit="8" fill="#000000"/>
<!-- Arc -->
<defs>
<clipPath id="cp6">
	<path clip-rule="evenodd" d="M 237,1688 H 11460 V 8565 H 237 z
		M 2987,3985 3083,4057 3175,3867 3147,3845z
		M 7334,2130 7334,2190 7481,2171 7481,2150z"/>
</clipPath>
</defs>
<path d="M 2115,4320 A 999 999 0 0 0 3150 3870" clip-path="url(#cp6)"
	stroke="#ff0000" stroke-width="30px"/>
<!-- Forward arrow to point 3150,3870 -->
<polygon points=" 3083,4057 3108,3925 2987,3985 3083,4057"
	stroke="#ff0000" stroke-width="60px" stroke-miterlimit="8" fill="#ff0000"/>
<!-- Arc -->
<defs>
<clipPath id="cp7">
	<path clip-rule="evenodd" d="M 237,1688 H 11460 V 8565 H 237 z
		M 5732,3985 5828,4057 5920,3867 5892,3845z
		M 7334,2130 7334,2190 7481,2171 7481,2150z"/>
</clipPath>
</defs>
<path d="M 4860,4320 A 999 999 0 0 0 5895 3870" clip-path="url(#cp7)"
	stroke="#ff0000" stroke-width="30px"/>
<!-- Forward arrow to point 5895,3870 -->
<polygon points=" 5828,4057 5853,3925 5732,3985 5828,4057"
	stroke="#ff0000" stroke-width="60px" stroke-miterlimit="8" fill="#ff0000"/>
</g>
</svg>
